/* XPM */
static char *result[] = {
/* columns rows colors chars-per-pixel */
"16 16 89 1 ",
"  c #796943",
". c #786A43",
"X c #7B6B47",
"o c #7D6F45",
"O c #7D6E47",
"+ c #7E6F47",
"@ c #967626",
"# c #917432",
"$ c #967A30",
"% c #8D7843",
"& c #817349",
"* c #80734A",
"= c #83764D",
"- c #84774D",
"; c #8C7B52",
": c #AA8523",
"> c #A1822B",
", c #A6843C",
"< c #B9993F",
"1 c #BEAB3E",
"2 c #CFA00A",
"3 c #D7A60E",
"4 c #CBA216",
"5 c #C4A61F",
"6 c #C3A13F",
"7 c #C5A23F",
"8 c #CAB13C",
"9 c #F0BE22",
"0 c #DFC333",
"q c #D3C03E",
"w c #F1C421",
"e c #E5CD34",
"r c #E9C93A",
"t c #EBE230",
"y c #9F864A",
"u c #908354",
"i c #928554",
"p c #968856",
"a c #948559",
"s c #968A59",
"d c #998958",
"f c #9C8B58",
"g c #9A8D5C",
"h c #A58849",
"j c #A78D48",
"k c #A99040",
"l c #A9914B",
"z c #B09745",
"x c #B59E43",
"c c #B59D45",
"v c #B49F47",
"b c #BC9B41",
"n c #B99844",
"m c #B09C50",
"M c #BA9E57",
"N c #BDA146",
"B c #BBAA44",
"V c #B8AB4F",
"C c #ACA05D",
"Z c #BEA554",
"A c #B0A05C",
"S c #A39563",
"D c #A29A63",
"F c #C0AE44",
"G c #C9A943",
"H c #CCA84B",
"J c #CDBA52",
"K c #D5B452",
"L c #C0AF68",
"P c #C0BB79",
"I c #DCD35F",
"U c #E1C042",
"Y c #E7C542",
"T c #E9C441",
"R c #E0CA47",
"E c #EACA43",
"W c #EED053",
"Q c #ECD756",
"! c #D2C161",
"~ c #C6C27A",
"^ c #E0C26C",
"/ c #EFD37E",
"( c #FAE568",
") c #FEEC7B",
"_ c #FAED7D",
"` c #EAD58A",
"' c #E7D990",
"] c #FFF9AA",
"[ c None",
/* pixels */
"[[[[[[[[[X[[[[[[",
"[[[[[[M6Hh[[[[[[",
"[[[[`YbkvN3n[[[[",
"[[[/RDa[[;C4j[[[",
"[[[E~[d[[O[!5[[[",
"[[^8[[p[[+[[0l[[",
"[[Tx[[g[[*[[U@[[",
"[[9z[[g[[=[[W>[[",
"[[wc[[g[[-[[(B[[",
"[[rF[[s[[&[[)V[[",
"[[Kq[[i[[o[[_A[[",
"[[[eP[u[[.[]I[[[",
"[[[JtLS[[f'Qm[[[",
"[[[[12G<7Z:,[[[[",
"[[[[[[y$#%[[[[[[",
"[[[[[[[[[ [[[[[["
};
