/* XPM */
static char *_cb623b5092b43ffc9bc9d2cc9100195[] = {
/* columns rows colors chars-per-pixel */
"16 16 68 1 ",
"  c #755A19",
". c #846721",
"X c #957926",
"o c #9C7F3B",
"O c #998232",
"+ c #9F8231",
"@ c #9D8832",
"# c #96823F",
"$ c #A58A2E",
"% c #AC8A2B",
"& c #AB8F3F",
"* c #A9923A",
"= c #BC9832",
"- c #B2973B",
"; c #B7973B",
": c #BD9B3A",
"> c #BC9D3F",
", c #B7A536",
"< c #B1A13E",
"1 c #CA9F0E",
"2 c #C59F13",
"3 c #D5A81E",
"4 c #EABB1F",
"5 c #C7AD28",
"6 c #C3A33E",
"7 c #ECC226",
"8 c #E3CC36",
"9 c #E0C23A",
"0 c #E0C739",
"q c #E2C03D",
"w c #E5E02F",
"e c #94804A",
"r c #A08449",
"t c #A2864B",
"y c #A08A48",
"u c #BD9D48",
"i c #A79B5C",
"p c #A49C5D",
"a c #A99D5C",
"s c #BFA443",
"d c #BDAF46",
"f c #B0A256",
"g c #BBA552",
"h c #B7AD52",
"j c #B5B05D",
"k c #BDB164",
"l c #B2B36A",
"z c #CAA84F",
"x c #CEB641",
"c c #DCBD48",
"v c #C7AE56",
"b c #C4A45F",
"n c #C6B654",
"m c #D5C340",
"M c #DCC946",
"N c #E1C346",
"B c #E7CB48",
"V c #EACF5C",
"C c #F3DE5D",
"Z c #CEC46D",
"A c #E1DA65",
"S c #F5E170",
"D c #F7E679",
"F c #F8ED7E",
"G c #E0CF81",
"H c #E7D381",
"J c #F8F19F",
"K c None",
/* pixels */
"KKKKKKKKKKKKKKKK",
"KKKKKKbuzrKKKKKK",
"KKKKGN:O@s3+KKKK",
"KKKHMpKKKKa2yKKK",
"KKKBjKKKKKKZ5KKK",
"KKvxKKKKKKKK0#KK",
"KKq*KKKKKKKKcXKK",
"KK4&KKKKKKKKV$KK",
"KK7-KKKKKKKKSdKK",
"KK9,KKKKKKKKDhKK",
"KKsmKKKKKKKKFiKK",
"KKK8lKKKKKKJAKKK",
"KKKnwkKKKKKCfKKK",
"KKKK<16;=g%oKKKK",
"KKKKKKr. eKKKKKK",
"KKKKKKKKKKKKKKKK"
};
