/* XPM */
static char *result[] = {
/* columns rows colors chars-per-pixel */
"32 32 184 2 ",
"   c #5E3C10",
".  c #6B490E",
"X  c #784C00",
"o  c #7B5406",
"O  c #60401B",
"+  c #795A11",
"@  c #7D5B19",
"#  c #7B611B",
"$  c #6A5126",
"%  c #785F2E",
"&  c #755A27",
"*  c #735934",
"=  c #7C652B",
"-  c #6A6139",
";  c #796434",
":  c #7F6B33",
">  c #74643B",
",  c #79653C",
"<  c #7E6F3D",
"1  c #796742",
"2  c #7D6C45",
"3  c #7E6F49",
"4  c #7F6D56",
"5  c #875F03",
"6  c #886100",
"7  c #93750E",
"8  c #8E6D18",
"9  c #8E7112",
"0  c #9E7C19",
"q  c #A27700",
"w  c #877528",
"e  c #937B23",
"r  c #816835",
"t  c #807237",
"y  c #87793E",
"u  c #977E49",
"i  c #957C47",
"p  c #907952",
"a  c #978510",
"s  c #9E8211",
"d  c #BD8802",
"f  c #BD880C",
"g  c #B88606",
"h  c #A28011",
"j  c #B08A17",
"k  c #9F872E",
"l  c #948634",
"z  c #AB842E",
"x  c #B2872A",
"c  c #A5912A",
"v  c #BE9326",
"b  c #A58930",
"n  c #AA983C",
"m  c #BDA83A",
"M  c #C88700",
"N  c #CDA011",
"B  c #DFAF14",
"V  c #DDAC1C",
"C  c #DDB117",
"Z  c #EBAC04",
"A  c #E6AE19",
"S  c #E9AE17",
"D  c #E8B411",
"F  c #C29A23",
"G  c #C19C2C",
"H  c #CB9F29",
"J  c #CCAC2D",
"K  c #D6AA29",
"L  c #DFBD28",
"P  c #D5B22C",
"I  c #CEA935",
"U  c #C6A231",
"Y  c #D3AA38",
"T  c #CBB539",
"R  c #D8B23B",
"E  c #D4BB3C",
"W  c #D9B936",
"Q  c #EBBD2A",
"!  c #E8B921",
"~  c #F4BF26",
"^  c #E4BB35",
"/  c #E6CC09",
"(  c #FFCE1B",
")  c #DCC43C",
"_  c #DED03D",
"`  c #E8C129",
"'  c #FFCD26",
"]  c #F7CA27",
"[  c #FFD226",
"{  c #E5CB34",
"}  c #E6C73D",
"|  c #F6C934",
" . c #F8F428",
".. c #EFE232",
"X. c #FFFF3E",
"o. c #8F8943",
"O. c #97804E",
"+. c #9C844C",
"@. c #9C8552",
"#. c #958B5F",
"$. c #A88E4E",
"%. c #A99041",
"&. c #B19847",
"*. c #A48C53",
"=. c #AD945B",
"-. c #AC9853",
";. c #B49C5E",
":. c #B99E5F",
">. c #B7A84B",
",. c #BDB440",
"<. c #8F8F69",
"1. c #9C9062",
"2. c #9A9770",
"3. c #A1936B",
"4. c #B6A164",
"5. c #BBA362",
"6. c #BDA866",
"7. c #BEA768",
"8. c #BFAB68",
"9. c #B0AE79",
"0. c #BDB473",
"q. c #CBA647",
"w. c #C8BC49",
"e. c #D7BD40",
"r. c #DCB649",
"t. c #C3A652",
"y. c #DEBC50",
"u. c #E6BF47",
"i. c #E1B64A",
"p. c #E2BF58",
"a. c #C1AB66",
"s. c #C2AD6B",
"d. c #CCAE62",
"f. c #C5B16D",
"g. c #C8B46F",
"h. c #DDBC6B",
"j. c #D6BC61",
"k. c #C6B270",
"l. c #C9B570",
"z. c #DDC941",
"x. c #CFC954",
"c. c #D0CC51",
"v. c #DDD355",
"b. c #E5CB4B",
"n. c #EEC849",
"m. c #E7CB42",
"M. c #FACD42",
"N. c #EDD443",
"B. c #EBD84C",
"V. c #F7D240",
"C. c #F3D64A",
"Z. c #E4C050",
"A. c #E8CE51",
"S. c #ECC552",
"D. c #EFD359",
"F. c #F5D355",
"G. c #FEE646",
"H. c #F7E351",
"J. c #FDF352",
"K. c #FFFF5A",
"L. c #DDC866",
"P. c #DEC372",
"I. c #E6CA68",
"U. c #F3D467",
"Y. c #E8C870",
"T. c #F1D972",
"R. c #EDE76E",
"E. c #F4E764",
"W. c #FFFF63",
"Q. c #FBF56B",
"!. c #FFFC6C",
"~. c #FDF277",
"^. c #EAD48A",
"/. c #FDE787",
"(. c #FBEC87",
"). c #FFFF85",
"_. c #FDF481",
"`. c #F0E091",
"'. c #F5E997",
"]. c #FFFD93",
"[. c #FCF59D",
"{. c #FFFF9D",
"}. c #FFFFA3",
"|. c None",
/* pixels */
"|.|.|.|.|.|.|.|.|.|.|.|.|.i |.|.|.|.i |.|.|.|.|.|.|.|.|.|.|.|.|.",
"|.|.|.|.|.|.|.|.|.|.|.|.|.O.|.|.|.|.@.|.|.|.|.|.|.|.|.|.|.|.|.|.",
"|.|.|.|.|.|.|.|.|.|.|.|.|.@.+.|.|.|.*.|.|.|.|.|.|.|.|.|.|.|.|.|.",
"|.|.|.|.|.|.|.|.|.|.|.I.i.=.H ! K K =.z q.|.|.|.|.|.|.|.|.|.|.|.",
"|.|.|.|.|.|.|.|.|.^.T.M.| =.v J T ) :.L Z d %.|.|.|.|.|.|.|.|.|.",
"|.|.|.|.|.|.|.|.L.I.V.) k ;.- p 3 t 3.%.{ S d 8 |.|.|.|.|.|.|.|.",
"|.|.|.|.|.|.|.h.D.C.>.- |.5.|.|.|.|.4.1 y T A d + |.|.|.|.|.|.|.",
"|.|.|.|.|.|.h.F.G.>.2.|.|.7.|.|.|.|.a.|.|.9.w.V g r |.|.|.|.|.|.",
"|.|.|.|.|.|.Z.G.x.<.|.|.|.s.|.|.|.|.s.|.|.|.0.) P 7 |.|.|.|.|.|.",
"|.|.|.|.|.d.n.H.o.|.|.|.|.s.|.|.|.|.s.|.|.|.|.m N._ = |.|.|.|.|.",
"|.|.|.|.|.q.C.w.1.|.|.|.|.s.|.|.|.|.s.|.|.|.|.&.} G.9 |.|.|.|.|.",
"|.|.|.|.|.R C.l |.|.|.|.|.k.|.|.|.|.s.|.|.|.|.|.J N.0 |.|.|.|.|.",
"|.|.|.|.y.^ B.r |.|.|.|.|.k.|.|.|.|.k.|.|.|.|.|.I } j * |.|.|.|.",
"|.|.|.|.m.^ b.; |.|.|.|.|.k.|.|.|.|.k.|.|.|.|.|.R m.F O |.|.|.|.",
"|.|.|.|.Q Q e.* |.|.|.|.|.k.|.|.|.|.k.|.|.|.|.|.r.b.I   |.|.|.|.",
"|.|.|.|.D ~ E 1 |.|.|.|.|.l.|.|.|.|.k.|.|.|.|.|.R E.A.. |.|.|.|.",
"|.|.|.|.B ] ) 2 |.|.|.|.|.l.|.|.|.|.k.|.|.|.|.|.P ~.Q.+ |.|.|.|.",
"|.|.|.|.L ' z., |.|.|.|.|.g.|.|.|.|.k.|.|.|.|.|.u._.Q.+ |.|.|.|.",
"|.|.|.|.E [ B.> |.|.|.|.|.g.|.|.|.|.f.|.|.|.|.|.u.].E.= |.|.|.|.",
"|.|.|.|.>.] J.: |.|.|.|.|.f.|.|.|.|.f.|.|.|.|.|.S.}.v.r |.|.|.|.",
"|.|.|.|.|.C K.l |.|.|.|.|.f.|.|.|.|.s.|.|.|.|.|.U.}.m p |.|.|.|.",
"|.|.|.|.|.f J.w.p |.|.|.|.f.|.|.|.|.f.|.|.|.|.|.(.].e |.|.|.|.|.",
"|.|.|.|.|.x | Q.t |.|.|.|.f.|.|.|.|.f.|.|.|.|.Y.}.R.= |.|.|.|.|.",
"|.|.|.|.|.|.N W.c.#.|.|.|.f.|.|.|.|.s.|.|.|.`.[.).c |.|.|.|.|.|.",
"|.|.|.|.|.|.z ..K.m 3.|.|.f.|.|.|.|.8.|.|.|.}.!.z.= |.|.|.|.|.|.",
"|.|.|.|.|.|.|.h  .X.T -.|.6.|.|.|.|.4.*./.`.F.` + |.|.|.|.|.|.|.",
"|.|.|.|.|.|.|.|.s / ( ] E 7.$.|.|.t.5.j.L.G f o |.|.|.|.|.|.|.|.",
"|.|.|.|.|.|.|.|.|.w 7 M A a.U F v Y a.z 5 X & |.|.|.|.|.|.|.|.|.",
"|.|.|.|.|.|.|.|.|.|.|.% @ 6.0 6 o 5 5.& $ |.|.|.|.|.|.|.|.|.|.|.",
"|.|.|.|.|.|.|.|.|.|.|.|.|.4., |.|.|.;.|.|.|.|.|.|.|.|.|.|.|.|.|.",
"|.|.|.|.|.|.|.|.|.|.|.|.|.5.|.|.|.|.5.|.|.|.|.|.|.|.|.|.|.|.|.|.",
"|.|.|.|.|.|.|.|.|.|.|.|.|.:.|.|.|.|.;.|.|.|.|.|.|.|.|.|.|.|.|.|."
};
