/* XPM */
static char *ade8273aa0ec4518829b4a8b1bb5f9eb[] = {
/* columns rows colors chars-per-pixel */
"32 32 234 2 ",
"   c #463511",
".  c #583F1B",
"X  c #5D481A",
"o  c #62440E",
"O  c #7D5100",
"+  c #61451B",
"@  c #715317",
"#  c #715914",
"$  c #7D6312",
"%  c #5B4C2B",
"&  c #604B23",
"*  c #685224",
"=  c #6B5A2E",
"-  c #7A5D29",
";  c #695432",
":  c #745F32",
">  c #735E3D",
",  c #766223",
"<  c #72602D",
"1  c #7B662B",
"2  c #676132",
"3  c #766632",
"4  c #796530",
"5  c #75613D",
"6  c #78633E",
"7  c #7E6D39",
"8  c #625342",
"9  c #776747",
"0  c #716A49",
"q  c #73744F",
"w  c #6C6451",
"e  c #7F7952",
"r  c #8B5E05",
"t  c #865E0E",
"y  c #825819",
"u  c #946C03",
"i  c #936B0A",
"p  c #816617",
"a  c #836C1F",
"s  c #916A17",
"d  c #8F771C",
"f  c #987D17",
"g  c #A97E02",
"h  c #867327",
"j  c #8A7025",
"k  c #81773A",
"l  c #85783D",
"z  c #A57E25",
"x  c #807743",
"c  c #807B42",
"v  c #8C7D56",
"b  c #968917",
"n  c #9F8719",
"m  c #BF8800",
"M  c #B1870E",
"N  c #BF8F0D",
"B  c #A78919",
"V  c #BA8C13",
"C  c #B8931C",
"Z  c #9F8A32",
"A  c #A6872A",
"S  c #A48535",
"D  c #A28039",
"F  c #AE953C",
"G  c #B49C35",
"H  c #BC9A36",
"J  c #B2963E",
"K  c #B7993B",
"L  c #B89C39",
"P  c #B0A138",
"I  c #C48B03",
"U  c #C18D0E",
"Y  c #D99604",
"T  c #CEA517",
"R  c #DFAB1A",
"E  c #DEB51C",
"W  c #E9AF06",
"Q  c #ECAE0F",
"!  c #E2B218",
"~  c #E4BB19",
"^  c #C39D26",
"/  c #C39A2E",
"(  c #D3A927",
")  c #DCAF21",
"_  c #DDB92F",
"`  c #C5A536",
"'  c #CDA737",
"]  c #CFAA32",
"[  c #C9AD3C",
"{  c #C4B538",
"}  c #CBBB3F",
"|  c #D8BA30",
" . c #DAB33E",
".. c #D4BD3F",
"X. c #E3B424",
"o. c #EFBA20",
"O. c #E8B929",
"+. c #E3BC34",
"@. c #EFBF39",
"#. c #E7D10D",
"$. c #FFD51C",
"%. c #DFC02C",
"&. c #DEC031",
"*. c #D3C43C",
"=. c #DBC23D",
"-. c #DED23D",
";. c #ECC62E",
":. c #F6C120",
">. c #FACA22",
",. c #F1CA2E",
"<. c #E7DB2B",
"1. c #FFD425",
"2. c #F9D22A",
"3. c #E5C733",
"4. c #E4CB33",
"5. c #E2C43A",
"6. c #E5C93B",
"7. c #ECD43C",
"8. c #F7D335",
"9. c #F5F22A",
"0. c #FCFE3B",
"q. c #998F42",
"w. c #92864A",
"e. c #9F8949",
"r. c #98984E",
"t. c #81855E",
"y. c #A79840",
"u. c #A38E5B",
"i. c #AD9352",
"p. c #AA955F",
"a. c #AE995E",
"s. c #B79A54",
"d. c #B39958",
"f. c #B99D58",
"g. c #B7A255",
"h. c #BCAE50",
"j. c #B5A15E",
"k. c #BBA35A",
"l. c #BDB150",
"z. c #8C8561",
"x. c #958361",
"c. c #9D8962",
"v. c #A89366",
"b. c #A59269",
"n. c #AE9C70",
"m. c #AC9B7A",
"M. c #B6A662",
"N. c #B8A468",
"B. c #BBA86B",
"V. c #B3A371",
"C. c #BEAE7E",
"Z. c #B5B476",
"A. c #BFB07D",
"S. c #CBA946",
"D. c #C3AC49",
"F. c #D7AE4B",
"G. c #C3B545",
"H. c #C1BC46",
"J. c #CDBE43",
"K. c #CABA4C",
"L. c #D6B540",
"P. c #DFB747",
"I. c #D3BC4F",
"U. c #C5AE5A",
"Y. c #D1AF51",
"T. c #C1BD53",
"R. c #D9BC57",
"E. c #D6B75B",
"W. c #E0BF56",
"Q. c #E2BC59",
"!. c #C3AF64",
"~. c #CCAC64",
"^. c #D9BD6D",
"/. c #C2AC76",
"(. c #C9B674",
"). c #C3B37C",
"_. c #CBB67B",
"`. c #CCBA7C",
"'. c #D8BF70",
"]. c #D2C147",
"[. c #DDC442",
"{. c #CCC856",
"}. c #C8C158",
"|. c #D4C450",
" X c #D7CF53",
".X c #E2CC41",
"XX c #E3CB4B",
"oX c #EBCC4A",
"OX c #F0CD45",
"+X c #F8CF42",
"@X c #E8D147",
"#X c #EAD04C",
"$X c #EDDA4A",
"%X c #F0D643",
"&X c #F9D34C",
"*X c #F2DC4A",
"=X c #EDD355",
"-X c #FADB5D",
";X c #FFED46",
":X c #FCE24A",
">X c #FFF04E",
",X c #F3EF50",
"<X c #F9FB52",
"1X c #FDFE5C",
"2X c #DAC966",
"3X c #D8C472",
"4X c #D4C37A",
"5X c #E9D166",
"6X c #ECD16C",
"7X c #ECD970",
"8X c #E7E161",
"9X c #EDED66",
"0X c #F3E162",
"qX c #FFFF61",
"wX c #F3F26B",
"eX c #FEFA6C",
"rX c #F9F074",
"tX c #F5F27E",
"yX c #FFFF78",
"uX c #C1AA80",
"iX c #C3B482",
"pX c #CDBC80",
"aX c #C6B888",
"sX c #D1BE82",
"dX c #D1BF8B",
"fX c #F6E888",
"gX c #F9F384",
"hX c #FFFF8F",
"jX c #F3EB97",
"kX c #FCF790",
"lX c #FFFD9B",
"zX c #FAF7A3",
"xX c #FDF9A1",
"cX c None",
/* pixels */
"cXcXcXcXcXcXcXcXcXcXcXcXcXc.cXcXcXcXv.cXcXcXcXcXcXcXcXcXcXcXcXcX",
"cXcXcXcXcXcXcXcXcXcXcXcXcXx.cXcXcXcXn.cXcXcXcXcXcXcXcXcXcXcXcXcX",
"cXcXcXcXcXcXcXcXcXcXcXcXcXm.u.cXcXcXb.cXcXcXcXcXcXcXcXcXcXcXcXcX",
"cXcXcXcXcXcXcXcXcXcXcXcXF.d.H _ ( / i.D cXcXcXcXcXcXcXcXcXcXcXcX",
"cXcXcXcXcXcXcXcXcXcX7X&X@.s.L | 5.[.j. .W N e.cXcXcXcXcXcXcXcXcX",
"cXcXcXcXcXcXcXcX4X5X+X_ G a.5     3 p.h.3.Q I j cXcXcXcXcXcXcXcX",
"cXcXcXcXcXcXcX'.=X%XG.2 w uXcXcXcXcX`.9 c } R I # cXcXcXcXcXcXcX",
"cXcXcXcXcXcX'.=X:XT.q cXcXdXcXcXcXcXsXcXcXcXJ.E M v cXcXcXcXcXcX",
"cXcXcXcXcXcXR.:X Xt.cXcXcXC.cXcXcXcX(.cXcXcXZ.*.5.f cXcXcXcXcXcX",
"cXcXcXcXcXk.oX*Xr.cXcXcXcX).cXcXcXcX(.cXcXcXcXl.@X3.3 cXcXcXcXcX",
"cXcXcXcXcXD.OX|.v cXcXcXcX).cXcXcXcX`.cXcXcXcXcX[.;Xd cXcXcXcXcX",
"cXcXcXcXcXL.#Xy.cXcXcXcXcX).cXcXcXcXsXcXcXcXcXcX[ 7.B cXcXcXcXcX",
"cXcXcXcXI.+.#Xl cXcXcXcXcX).cXcXcXcXsXcXcXcXcXcXS.6.C ; cXcXcXcX",
"cXcXcXcX&.+.XX= cXcXcXcXcXiXcXcXcXcXsXcXcXcXcXcXY.6.^ X cXcXcXcX",
"cXcXcXcX~ O.[.& cXcXcXcXcXiXcXcXcXcXsXcXcXcXcXcXE.oX] + cXcXcXcX",
"cXcXcXcX! o.L.5 cXcXcXcXcXiXcXcXcXcXsXcXcXcXcXcXcX0X#X@ cXcXcXcX",
"cXcXcXcX) :.=.6 cXcXcXcXcXaXcXcXcXcXsXcXcXcXcXcXcXrXeXp cXcXcXcX",
"cXcXcXcX&.>..X* cXcXcXcXcXiXcXcXcXcXsXcXcXcXcXcXQ.gXeXa cXcXcXcX",
"cXcXcXcX..1.$X< cXcXcXcXcXiXcXcXcXcXsXcXcXcXcXcXP.kXwX, cXcXcXcX",
"cXcXcXcXF 2.,Xk cXcXcXcXcXiXcXcXcXcXsXcXcXcXcXcXW.lX8X: cXcXcXcX",
"cXcXcXcXcXE <Xq.cXcXcXcXcXiXcXcXcXcX`.cXcXcXcXcX6XlXK.cXcXcXcXcX",
"cXcXcXcXcXV >X}.8 cXcXcXcXiXcXcXcXcX`.cXcXcXcXcXfXlXZ cXcXcXcXcX",
"cXcXcXcXcXz 8.9Xx cXcXcXcX).cXcXcXcX`.cXcXcXcX^.xXgX1 cXcXcXcXcX",
"cXcXcXcXcXcXT qX{.z.cXcXcXA.cXcXcXcX`.cXcXcXcXjXhXP cXcXcXcXcXcX",
"cXcXcXcXcXcXS <.1XH.0 cXcXaXcXcXcXcX).cXcXcXzXyX-.7 cXcXcXcXcXcX",
"cXcXcXcXcXcXcXn 9.0.{ w.cX).cXcXcXcXC.~.cXjX-X,.$ cXcXcXcXcXcXcX",
"cXcXcXcXcXcXcXcXb #.$.;.].M.u.cXcXg.B.3X2X' U t cXcXcXcXcXcXcXcX",
"cXcXcXcXcXcXcXcXcXh g Y X.U.L ^ / ` !.J i O - cXcXcXcXcXcXcXcXcX",
"cXcXcXcXcXcXcXcXcXcXcXo y f.A u r s g.4 X cXcXcXcXcXcXcXcXcXcXcX",
"cXcXcXcXcXcXcXcXcXcXcXcXcX/.3 cXcX% N.cXcXcXcXcXcXcXcXcXcXcXcXcX",
"cXcXcXcXcXcXcXcXcXcXcXcXcXiXcXcXcXcXsXcXcXcXcXcXcXcXcXcXcXcXcXcX",
"cXcXcXcXcXcXcXcXcXcXcXcXcXV.cXcXcXcX/.cXcXcXcXcXcXcXcXcXcXcXcXcX"
};
