/* XPM */
static char *result[] = {
/* columns rows colors chars-per-pixel */
"48 48 228 2 ",
"   c #4B3100",
".  c #513202",
"X  c #553A04",
"o  c #5C3C01",
"O  c #5C3C07",
"+  c #4C3C14",
"@  c #553C1E",
"#  c #4A2D0D",
"$  c #633C00",
"%  c #5C4401",
"&  c #5C4314",
"*  c #5D4319",
"=  c #694B01",
"-  c #644600",
";  c #744C02",
":  c #6A5109",
">  c #755901",
",  c #664A1A",
"<  c #695616",
"1  c #715F16",
"2  c #79661D",
"3  c #7F640B",
"4  c #5E5021",
"5  c #5C523A",
"6  c #654B25",
"7  c #6B5525",
"8  c #6B5433",
"9  c #615236",
"0  c #745C37",
"q  c #70562B",
"w  c #776524",
"e  c #7D722B",
"r  c #72613C",
"t  c #7C7B3A",
"y  c #6D6836",
"u  c #6E5D46",
"i  c #7A6745",
"p  c #845C06",
"a  c #866606",
"s  c #996905",
"d  c #9A760A",
"f  c #946919",
"g  c #A56D00",
"h  c #A67609",
"j  c #B07903",
"k  c #A47712",
"l  c #B07E10",
"z  c #897B29",
"x  c #857424",
"c  c #967E28",
"v  c #8D7636",
"b  c #A47D27",
"n  c #A97A32",
"m  c #856E40",
"M  c #897446",
"N  c #937B48",
"B  c #8B7859",
"V  c #9C841B",
"C  c #A88101",
"Z  c #B88906",
"A  c #BE9D02",
"S  c #B98B18",
"D  c #BD9217",
"F  c #98852A",
"G  c #9A8F33",
"H  c #8E873A",
"J  c #AB8922",
"K  c #B99728",
"L  c #BA9A3D",
"P  c #B1922A",
"I  c #B6A339",
"U  c #C88C04",
"Y  c #D6990C",
"T  c #C59717",
"R  c #C8900B",
"E  c #E29B00",
"W  c #CEA31C",
"Q  c #D9AC19",
"!  c #D5B118",
"~  c #F0AB02",
"^  c #F1B00A",
"/  c #E9B818",
"(  c #F2BC18",
")  c #EAAE0D",
"_  c #C49925",
"`  c #C49E33",
"'  c #C9A828",
"]  c #D7AB26",
"[  c #D6B22A",
"{  c #CEA736",
"}  c #CBA937",
"|  c #CAB439",
" . c #DDB534",
".. c #DBBC35",
"X. c #E8B729",
"o. c #E3B333",
"O. c #E9BF3A",
"+. c #E5BD36",
"@. c #F5BF27",
"#. c #F8C61B",
"$. c #E8DD13",
"%. c #FFE619",
"&. c #EFC021",
"*. c #FBC628",
"=. c #FCCB2A",
"-. c #F5C426",
";. c #FFD62E",
":. c #FFD829",
">. c #EBC433",
",. c #E2C33C",
"<. c #EAC33B",
"1. c #E6C736",
"2. c #F7CB34",
"3. c #EED43C",
"4. c #FAD539",
"5. c #EFE12C",
"6. c #FFFF2F",
"7. c #FFE230",
"8. c #FFF130",
"9. c #F4ED26",
"0. c #97814E",
"q. c #9A824C",
"w. c #89845B",
"e. c #9C8552",
"r. c #9E8B5B",
"t. c #988555",
"y. c #9F905B",
"u. c #919249",
"i. c #A08C42",
"p. c #AF9145",
"a. c #A38C54",
"s. c #A28D5C",
"d. c #A4945D",
"f. c #AB955B",
"g. c #AE9A5D",
"h. c #A89155",
"j. c #B39B5D",
"k. c #B99C56",
"l. c #BE9945",
"z. c #B1A945",
"x. c #BBA35B",
"c. c #A5A443",
"v. c #988866",
"b. c #9F9B69",
"n. c #A48D60",
"m. c #AC9761",
"M. c #AC9C64",
"N. c #AB9C65",
"B. c #B29E62",
"V. c #AFA067",
"C. c #AFA068",
"Z. c #B3A163",
"A. c #BBA463",
"S. c #B2A169",
"D. c #BDA76A",
"F. c #BEAA69",
"G. c #C8A84B",
"H. c #D3AA4B",
"J. c #C5B545",
"K. c #DBB64B",
"L. c #D5B746",
"P. c #C7A954",
"I. c #C7BC59",
"U. c #D9B75C",
"Y. c #E4BC44",
"T. c #C1A965",
"R. c #C2AD6B",
"E. c #C5B16E",
"W. c #CAB46E",
"Q. c #CCB670",
"!. c #C5B170",
"~. c #D7B962",
"^. c #CCC24E",
"/. c #C5C25A",
"(. c #D4CB55",
"). c #D5C358",
"_. c #DBCE49",
"`. c #E6CD46",
"'. c #E7C947",
"]. c #EBD44A",
"[. c #F2D645",
"{. c #F2DB44",
"}. c #F7DC4A",
"|. c #F8DA4B",
" X c #E6C658",
".X c #F6CF57",
"XX c #F9DA5A",
"oX c #E4D251",
"OX c #FFE54C",
"+X c #FEE746",
"@X c #FFFF46",
"#X c #FFF54A",
"$X c #FEE354",
"%X c #FFED52",
"&X c #F9E65F",
"*X c #FFF452",
"=X c #FFFD55",
"-X c #FFF35B",
";X c #FBF85D",
":X c #DFC56A",
">X c #ECDF63",
",X c #EDDD6B",
"<X c #F0D160",
"1X c #EDD073",
"2X c #F4DD7A",
"3X c #E5CD78",
"4X c #F4EE66",
"5X c #F4EC6C",
"6X c #FDEC63",
"7X c #FFFF6D",
"8X c #FCF868",
"9X c #F7E37B",
"0X c #FCFC76",
"qX c #FFFE7D",
"wX c #F9F57B",
"eX c #F2DD87",
"rX c #F4E184",
"tX c #FFFF8E",
"yX c #EFE094",
"uX c #F5E997",
"iX c #FFFF92",
"pX c #FFFF9C",
"aX c #FDF39C",
"sX c #FFFCA5",
"dX c #FDF4AA",
"fX c #FDF9B3",
"gX c #F8EBA6",
"hX c None",
/* pixels */
"hXhXhXhXhXhXhXhXhXhXhXhXhXhXhXhXhXhXhXe.N hXhXhXhXhXhXq.m hXhXhXhXhXhXhXhXhXhXhXhXhXhXhXhXhXhXhX",
"hXhXhXhXhXhXhXhXhXhXhXhXhXhXhXhXhXhXhXe.N hXhXhXhXhXhXq.M hXhXhXhXhXhXhXhXhXhXhXhXhXhXhXhXhXhXhX",
"hXhXhXhXhXhXhXhXhXhXhXhXhXhXhXhXhXhXhXr.N hXhXhXhXhXhXe.N hXhXhXhXhXhXhXhXhXhXhXhXhXhXhXhXhXhXhX",
"hXhXhXhXhXhXhXhXhXhXhXhXhXhXhXhXhXhXhXs.a.hXhXhXhXhXhXs.N hXhXhXhXhXhXhXhXhXhXhXhXhXhXhXhXhXhXhX",
"hXhXhXhXhXhXhXhXhXhXhXhXhXhXhXhXhXhXhXk.s.n S S h f n f.t.hXhXhXhXhXhXhXhXhXhXhXhXhXhXhXhXhXhXhX",
"hXhXhXhXhXhXhXhXhXhXhXhXhXhXhXhX:XK.o.P.r.} -.2.O.O.X.j.a.j j L hXhXhXhXhXhXhXhXhXhXhXhXhXhXhXhX",
"hXhXhXhXhXhXhXhXhXhXhXhXhXhX3XrX2X.X*.H.s.{ 2.|.XX+XOXB.h./ ) U h G hXhXhXhXhXhXhXhXhXhXhXhXhXhX",
"hXhXhXhXhXhXhXhXhXhXhXhXhX~.yXXX>.*.*.H.m.x < : : 1 F j.f.3.:.) Y Z a hXhXhXhXhXhXhXhXhXhXhXhXhX",
"hXhXhXhXhXhXhXhXhXhXhXhXU.yX,.>.XXJ.1 q.B.r hXhXhXhXM B.a.z _.4.Y Y U ; hXhXhXhXhXhXhXhXhXhXhXhX",
"hXhXhXhXhXhXhXhXhXhXhXU.rX..[.>XH + 5 m.T.hXhXhXhXhXhXA.d.8 < I 3.Q R Z - hXhXhXhXhXhXhXhXhXhXhX",
"hXhXhXhXhXhXhXhXhXhXH.rX1.OX>Xt i hXhXB.T.hXhXhXhXhXhXD.h.hXhXM c.].Y T S o hXhXhXhXhXhXhXhXhXhX",
"hXhXhXhXhXhXhXhXhXH.eX4.+X5Xt v.hXhXhXB.R.hXhXhXhXhXhXR.f.hXhXhXb.z.3.W ' d 6 hXhXhXhXhXhXhXhXhX",
"hXhXhXhXhXhXhXhXhXU.XX4.8Xu.w.hXhXhXhXS.R.hXhXhXhXhXhXR.m.hXhXhXhXd.^.,.' [ = hXhXhXhXhXhXhXhXhX",
"hXhXhXhXhXhXhXhXl.1X2.%X/.y hXhXhXhXhXV.R.hXhXhXhXhXhXR.f.hXhXhXhXhXP oX' `.K & hXhXhXhXhXhXhXhX",
"hXhXhXhXhXhXhXhXG. X4.4Xe hXhXhXhXhXhXV.R.hXhXhXhXhXhXF.g.hXhXhXhXhXhX' {.{.+X% hXhXhXhXhXhXhXhX",
"hXhXhXhXhXhXhXP.U.+.$X/.w hXhXhXhXhXhXV.R.hXhXhXhXhXhXE.m.hXhXhXhXhXhXJ `.{.#Xd 0 hXhXhXhXhXhXhX",
"hXhXhXhXhXhXhX`  X,.&XH t.hXhXhXhXhXhXV.E.hXhXhXhXhXhXR.M.hXhXhXhXhXhXk.' ].{.K % hXhXhXhXhXhXhX",
"hXhXhXhXhXhXhX{ K.1.>X, hXhXhXhXhXhXhXS.W.hXhXhXhXhXhX!.B.hXhXhXhXhXhXhXD `.,.' - hXhXhXhXhXhXhX",
"hXhXhXhXhXhXhX . .[.^.* hXhXhXhXhXhXhXS.Q.hXhXhXhXhXhXE.B.hXhXhXhXhXhXhXK '.1.] $ hXhXhXhXhXhXhX",
"hXhXhXhXhXhXY.>. .$XI 6 hXhXhXhXhXhXhXC.W.hXhXhXhXhXhX!.B.hXhXhXhXhXhXhX` ,.1. .; 8 hXhXhXhXhXhX",
"hXhXhXhXhXhX<.1.o.$XF 0 hXhXhXhXhXhXhXC.Q.hXhXhXhXhXhXE.B.hXhXhXhXhXhXhX{ +.'...> @ hXhXhXhXhXhX",
"hXhXhXhXhXhXO.X.X.$Xx u hXhXhXhXhXhXhXS.Q.hXhXhXhXhXhX!.M.hXhXhXhXhXhXhXhX.. X .f # hXhXhXhXhXhX",
"hXhXhXhXhXhX/ ( X.$Xw hXhXhXhXhXhXhXhXC.Q.hXhXhXhXhXhX!.B.hXhXhXhXhXhXhXhXo.,X'.b # hXhXhXhXhXhX",
"hXhXhXhXhXhX) ( X.OX2 hXhXhXhXhXhXhXhXC.Q.hXhXhXhXhXhXE.Z.hXhXhXhXhXhXhXhX+.qX&X` # hXhXhXhXhXhX",
"hXhXhXhXhXhXQ ( @.OX2 hXhXhXhXhXhXhXhXC.Q.hXhXhXhXhXhX!.Z.hXhXhXhXhXhXhXhX<.iX7X| . hXhXhXhXhXhX",
"hXhXhXhXhXhX] ( *.%Xe hXhXhXhXhXhXhXhXV.Q.hXhXhXhXhXhXE.Z.hXhXhXhXhXhXhXhX<.pXqX| O hXhXhXhXhXhX",
"hXhXhXhXhXhX..#.=.*Xz i hXhXhXhXhXhXhXC.Q.hXhXhXhXhXhX!.Z.hXhXhXhXhXhXhXhX'.pXqX| & hXhXhXhXhXhX",
"hXhXhXhXhXhX^.-.=.*XG 8 hXhXhXhXhXhXhXS.Q.hXhXhXhXhXhXE.Z.hXhXhXhXhXhXhXY..XsXqXK , hXhXhXhXhXhX",
"hXhXhXhXhXhXI./ ;.=Xz.7 hXhXhXhXhXhXhXM.W.hXhXhXhXhXhXE.B.hXhXhXhXhXhXhXo.2XpXqXV r hXhXhXhXhXhX",
"hXhXhXhXhXhXhXT 7.=X(.* hXhXhXhXhXhXhXM.W.hXhXhXhXhXhXR.j.hXhXhXhXhXhXhXo.aXiXqX3 B hXhXhXhXhXhX",
"hXhXhXhXhXhXhXh :.#X4X& hXhXhXhXhXhXhXM.W.hXhXhXhXhXhXE.Z.hXhXhXhXhXhXhXO.sXiX5X= hXhXhXhXhXhXhX",
"hXhXhXhXhXhXhXf &.+X7Xe hXhXhXhXhXhXhXM.W.hXhXhXhXhXhXE.j.hXhXhXhXhXhXhX.XsXiX(.% hXhXhXhXhXhXhX",
"hXhXhXhXhXhXhXn R +X8XI.@ hXhXhXhXhXhXN.W.hXhXhXhXhXhXR.Z.hXhXhXhXhXhXo.aXiXiXJ q hXhXhXhXhXhXhX",
"hXhXhXhXhXhXhXhXg 2.-X0X< hXhXhXhXhXhXN.W.hXhXhXhXhXhXR.Z.hXhXhXhXhXhXU.fXtXwX= hXhXhXhXhXhXhXhX",
"hXhXhXhXhXhXhXhXk Q %X7X/.6 hXhXhXhXhXN.W.hXhXhXhXhXhXR.j.hXhXhXhXhXY.fXtXiXJ.O hXhXhXhXhXhXhXhX",
"hXhXhXhXhXhXhXhXhXj +X8X7XG w.hXhXhXhXm.E.hXhXhXhXhXhXF.M.hXhXhXhX2XgXsXqX8X= v.hXhXhXhXhXhXhXhX",
"hXhXhXhXhXhXhXhXhXf ! =X=X8Xx v.hXhXhXd.W.hXhXhXhXhXhXF.g.hXhXhXhXaXsX-X8XP & hXhXhXhXhXhXhXhXhX",
"hXhXhXhXhXhXhXhXhXhXa 5.@X@X*Xz M hXhXd.E.hXhXhXhXhXhXF.f.hXhX9XsXdX|.%X... hXhXhXhXhXhXhXhXhXhX",
"hXhXhXhXhXhXhXhXhXhXhXa 9.6.8.%XI F hXM.R.hXhXhXhXhXhXF.g.hX<XdXyXo.2.[ o v.hXhXhXhXhXhXhXhXhXhX",
"hXhXhXhXhXhXhXhXhXhXhXr.3 $.%.#.4.].' P.D.0.hXhXhXhXhXF.x. XaX~.T ] T $ B hXhXhXhXhXhXhXhXhXhXhX",
"hXhXhXhXhXhXhXhXhXhXhXhXhX> A ^ ~ ^ =.).B.l._ K K } L.T.Z.G.K l l s o v.hXhXhXhXhXhXhXhXhXhXhXhX",
"hXhXhXhXhXhXhXhXhXhXhXhXhXhXw > g U E L.S.` W K P _ _ F.j.d a ; $ , hXhXhXhXhXhXhXhXhXhXhXhXhXhX",
"hXhXhXhXhXhXhXhXhXhXhXhXhXhXhXhX7 % $ p.D.J Z d g s h A.g.    , hXhXhXhXhXhXhXhXhXhXhXhXhXhXhXhX",
"hXhXhXhXhXhXhXhXhXhXhXhXhXhXhXhXhXhXu e.R.w % o .   + x.f.9 hXhXhXhXhXhXhXhXhXhXhXhXhXhXhXhXhXhX",
"hXhXhXhXhXhXhXhXhXhXhXhXhXhXhXhXhXhXhXd.A.i hXhXhXhXhXA.f.hXhXhXhXhXhXhXhXhXhXhXhXhXhXhXhXhXhXhX",
"hXhXhXhXhXhXhXhXhXhXhXhXhXhXhXhXhXhXhXs.T.hXhXhXhXhXhXA.f.hXhXhXhXhXhXhXhXhXhXhXhXhXhXhXhXhXhXhX",
"hXhXhXhXhXhXhXhXhXhXhXhXhXhXhXhXhXhXhXs.T.hXhXhXhXhXhXB.h.hXhXhXhXhXhXhXhXhXhXhXhXhXhXhXhXhXhXhX",
"hXhXhXhXhXhXhXhXhXhXhXhXhXhXhXhXhXhXhXr.x.hXhXhXhXhXhXj.h.hXhXhXhXhXhXhXhXhXhXhXhXhXhXhXhXhXhXhX"
};
