/* XPM */
static char *_34338f2f4394207a460ba00975ae143[] = {
/* columns rows colors chars-per-pixel */
"64 64 256 2 ",
"   c #392808",
".  c #3D330B",
"X  c #3C3018",
"o  c #3C352F",
"O  c #422C02",
"+  c #482C05",
"@  c #4C3403",
"#  c #4C360C",
"$  c #493609",
"%  c #533601",
"&  c #533B02",
"*  c #573907",
"=  c #4C3513",
"-  c #543F16",
";  c #4C2D0A",
":  c #663C06",
">  c #4F3F29",
",  c #5A470C",
"<  c #59471B",
"1  c #5F5A16",
"2  c #564A16",
"3  c #664A05",
"4  c #744C05",
"5  c #6A5404",
"6  c #76590A",
"7  c #69561E",
"8  c #7C6404",
"9  c #766617",
"0  c #6B650F",
"q  c #53432C",
"w  c #574927",
"e  c #5D512E",
"r  c #624F26",
"t  c #645628",
"y  c #6C5B3B",
"u  c #655435",
"i  c #705B3B",
"p  c #7B7A23",
"a  c #69643B",
"s  c #78653A",
"d  c #706928",
"f  c #645340",
"g  c #6B694B",
"h  c #76664C",
"j  c #766A58",
"k  c #7D7650",
"l  c #835B07",
"z  c #86680B",
"x  c #9A6907",
"c  c #947202",
"v  c #8B6A14",
"b  c #997717",
"n  c #926F14",
"m  c #A8780A",
"M  c #AA7C13",
"N  c #A87E1D",
"B  c #B27B12",
"V  c #8A6825",
"C  c #867724",
"Z  c #9E7923",
"A  c #917A3F",
"S  c #8B6F38",
"D  c #A57B2A",
"F  c #987B45",
"G  c #827255",
"H  c #91764B",
"J  c #897A60",
"K  c #AA870B",
"L  c #B68809",
"P  c #A88315",
"I  c #B58A19",
"U  c #BC9216",
"Y  c #B69518",
"T  c #BE990C",
"R  c #978D28",
"E  c #868331",
"W  c #948635",
"Q  c #A98727",
"!  c #B79529",
"~  c #A98738",
"^  c #AA9835",
"/  c #B69635",
"(  c #B38A25",
")  c #B9AA28",
"_  c #BAA53D",
"`  c #BEB43D",
"'  c #C88A0B",
"]  c #CD9C0D",
"[  c #C69209",
"{  c #D79806",
"}  c #C89A17",
"|  c #C08C16",
" . c #E79F08",
".. c #C9A518",
"X. c #DBAC1A",
"o. c #D6A517",
"O. c #D8B61B",
"+. c #D3B312",
"@. c #E8A909",
"#. c #F7BE0E",
"$. c #E4AC16",
"%. c #E8B718",
"&. c #F2B915",
"*. c #C3942A",
"=. c #C59C36",
"-. c #C9A326",
";. c #D6AA28",
":. c #CAB228",
">. c #DCB72A",
",. c #C8A538",
"<. c #C9B63D",
"1. c #DCBB3B",
"2. c #D7B636",
"3. c #D0A838",
"4. c #E7B829",
"5. c #F2BC2B",
"6. c #E9B935",
"7. c #F7BC33",
"8. c #E8AC29",
"9. c #F4C61A",
"0. c #FAD818",
"q. c #EFCB16",
"w. c #FFFE1D",
"e. c #DDC63B",
"r. c #D4CD2E",
"t. c #E3CB2D",
"y. c #EBC725",
"u. c #F6CB27",
"i. c #FDD42A",
"p. c #E7C738",
"a. c #F8C937",
"s. c #EBDA38",
"d. c #FAD935",
"f. c #E7D725",
"g. c #FBE327",
"h. c #FFFD29",
"j. c #FBE239",
"k. c #FCFB3C",
"l. c #9C8248",
"z. c #9A8352",
"x. c #84825F",
"c. c #A58C48",
"v. c #AD9346",
"b. c #B69744",
"n. c #A58A57",
"m. c #A79459",
"M. c #B59C5E",
"N. c #B49858",
"B. c #BAA949",
"V. c #BCB244",
"C. c #BCA25E",
"Z. c #B4A259",
"A. c #BDB45C",
"S. c #B9B656",
"D. c #988E69",
"F. c #9E926B",
"G. c #9F9072",
"H. c #A48F64",
"J. c #A2956E",
"K. c #A89566",
"L. c #B99D63",
"P. c #BA9D6B",
"I. c #A19374",
"U. c #A79C71",
"Y. c #A99E73",
"T. c #A99C7B",
"R. c #B79A7E",
"E. c #BDA462",
"W. c #BEAA64",
"Q. c #BCA46B",
"!. c #BBA66A",
"~. c #ABA075",
"^. c #AEA07B",
"/. c #BBA573",
"(. c #C19F54",
"). c #C1A745",
"_. c #C6BB4C",
"`. c #DABA45",
"'. c #C4B657",
"]. c #D8BB55",
"[. c #D0AA4D",
"{. c #E1AF41",
"}. c #C0A663",
"|. c #C1A965",
" X c #C3AD6C",
".X c #C4AB68",
"XX c #C5B16D",
"oX c #C9B56E",
"OX c #C8B56A",
"+X c #D2BC63",
"@X c #CAB673",
"#X c #CCBA72",
"$X c #CEBB7E",
"%X c #C6B470",
"&X c #CCB777",
"*X c #D8C449",
"=X c #CFC455",
"-X c #D9CB57",
";X c #D9D250",
":X c #E6C747",
">X c #F8CC43",
",X c #EAD448",
"<X c #FBDC4D",
"1X c #F7D847",
"2X c #E8CA54",
"3X c #E7D659",
"4X c #F8D75A",
"5X c #FEE444",
"6X c #FDEA43",
"7X c #FDE34B",
"8X c #FBE84A",
"9X c #FEFD4D",
"0X c #FDF545",
"qX c #FDE454",
"wX c #F9EA58",
"eX c #FDFC5C",
"rX c #FBF958",
"tX c #EFE95E",
"yX c #D8C362",
"uX c #DCD365",
"iX c #D3C37C",
"pX c #D1C277",
"aX c #CFC37E",
"sX c #E2C867",
"dX c #E9D768",
"fX c #EADA73",
"gX c #F2D770",
"hX c #EAE166",
"jX c #F4E666",
"kX c #FFFC65",
"lX c #FFFD6B",
"zX c #F9F565",
"xX c #F4E479",
"cX c #FDFE7B",
"vX c #FBF87A",
"bX c #EFF271",
"nX c #D0BB80",
"mX c #D7C681",
"MX c #D8C782",
"NX c #E7CF8B",
"BX c #E9DC8E",
"VX c #F5EA8A",
"CX c #FEFE82",
"ZX c #FEFF8C",
"AX c #F7FA89",
"SX c #F8EA99",
"DX c #FCFD93",
"FX c #FCFE9B",
"GX c #F8F49A",
"HX c #ECEE92",
"JX c #FEFDAB",
"KX c #FAFAA4",
"LX c #FCFABC",
"PX c #F6E5AE",
"IX c #FEFFCA",
"UX c None",
/* pixels */
"UXUXUXUXUXUXUXUXUXUXUXUXUXUXUXUXUXUXUXUXUXUXUXUXUXUXl.F UXUXUXUXUXUXUXUXK.F h UXUXUXUXUXUXUXUXUXUXUXUXUXUXUXUXUXUXUXUXUXUXUXUXUX",
"UXUXUXUXUXUXUXUXUXUXUXUXUXUXUXUXUXUXUXUXUXUXUXUXUXUXF n.UXUXUXUXUXUXUXUXH.F h UXUXUXUXUXUXUXUXUXUXUXUXUXUXUXUXUXUXUXUXUXUXUXUXUX",
"UXUXUXUXUXUXUXUXUXUXUXUXUXUXUXUXUXUXUXUXUXUXUXUXUXUXl.n.UXUXUXUXUXUXUXUXK.F h UXUXUXUXUXUXUXUXUXUXUXUXUXUXUXUXUXUXUXUXUXUXUXUXUX",
"UXUXUXUXUXUXUXUXUXUXUXUXUXUXUXUXUXUXUXUXUXUXUXUXUXUXl.n.UXUXUXUXUXUXUXUXU.F G UXUXUXUXUXUXUXUXUXUXUXUXUXUXUXUXUXUXUXUXUXUXUXUXUX",
"UXUXUXUXUXUXUXUXUXUXUXUXUXUXUXUXUXUXUXUXUXUXUXUXUXUXn.n.UXUXUXUXUXUXUXUX/.n.J UXUXUXUXUXUXUXUXUXUXUXUXUXUXUXUXUXUXUXUXUXUXUXUXUX",
"UXUXUXUXUXUXUXUXUXUXUXUXUXUXUXUXUXUXUXUXUXUXUXUXUXUXK.H.c.(./ ~ D F H UXL.m.G UXUXUXUXUXUXUXUXUXUXUXUXUXUXUXUXUXUXUXUXUXUXUXUXUX",
"UXUXUXUXUXUXUXUXUXUXUXUXUXUXUXUXUXUXUXUXUXUXUXUX*.=.v.H.D | -...*.M M N N.m.A V UXUXUXUXUXUXUXUXUXUXUXUXUXUXUXUXUXUXUXUXUXUXUXUX",
"UXUXUXUXUXUXUXUXUXUXUXUXUXUXUXUXUXUXUXUXUXUX[.].:X2XN.H.b.a.u.a.a.a.a.a.C.n.~ B m N c.UXUXUXUXUXUXUXUXUXUXUXUXUXUXUXUXUXUXUXUXUX",
"UXUXUXUXUXUXUXUXUXUXUXUXUXUXUXUXUXUXUXUXfXHXVX4X7.6.N.m./ i.d.qXwXqX5Xj.E.m.b.u.@.{ L b z.UXUXUXUXUXUXUXUXUXUXUXUXUXUXUXUXUXUXUX",
"UXUXUXUXUXUXUXUXUXUXUXUXUXUXUXUXUXUXOXVXSX2Xy.%.&.p.Z.K.~ =.^ ^ ^ ^ ` *XW.J.b.i.u.$. .{ m 9 UXUXUXUXUXUXUXUXUXUXUXUXUXUXUXUXUXUX",
"UXUXUXUXUXUXUXUXUXUXUXUXUXUXUXUXUX'.PXgX5.5.a.1Xp.).M.Q.t   + . + $ O 2 Z.m.m.jXj.9.@.{ ] L 6 UXUXUXUXUXUXUXUXUXUXUXUXUXUXUXUXUX",
"UXUXUXUXUXUXUXUXUXUXUXUXUXUXUXB.#XSX*X1.p.1X4Xb., t E.P.G UXUXUXUXUXUXUXW.M.S 0 _.<Xp.] [ [ U 6 < UXUXUXUXUXUXUXUXUXUXUXUXUXUXUX",
"UXUXUXUXUXUXUXUXUXUXUXUXUXUXUX].SXt.p.,XtX-X9 . o UX X/.UXUXUXUXUXUXUXUX@XL.D.e , E tXt.] ' ' U 3 > UXUXUXUXUXUXUXUXUXUXUXUXUXUX",
"UXUXUXUXUXUXUXUXUXUXUXUXUXUX).SXt.p.,XzXA.1 w UXUXUX.X.XUXUXUXUXUXUXUXUX%XL.T.UXUXa p 3Xp.] ' } I & UXUXUXUXUXUXUXUXUXUXUXUXUXUX",
"UXUXUXUXUXUXUXUXUXUXUXUXUX*.VX,X:XtXzXS.a a UXUXUXUX X/.UXUXUXUXUXUXUXUX$XL.G.UXUXUXUXE 3Xt...] ..Z @ UXUXUXUXUXUXUXUXUXUXUXUXUX",
"UXUXUXUXUXUXUXUXUXUXUXUX/ NXjXu.7XvXS.a D.UXUXUXUXUX X XUXUXUXUXUXUXUXUX$XC.I.UXUXUXUXUXW jX>...] 3.z a UXUXUXUXUXUXUXUXUXUXUXUX",
"UXUXUXUXUXUXUXUXUXUXUXUX).SXu.<XeXuXd x.UXUXUXUXUXUXXX.XUXUXUXUXUXUXUXUX$XC.I.UXUXUXUXUXUX^ 8X:.-.`._ @ UXUXUXUXUXUXUXUXUXUXUXUX",
"UXUXUXUXUXUXUXUXUXUXUXQ NX>Xa.wXzXE g UXUXUXUXUXUXUXXX XUXUXUXUXUXUXUXUXnXE.I.UXUXUXUXUXUXW <.3X<.2.p.z w UXUXUXUXUXUXUXUXUXUXUX",
"UXUXUXUXUXUXUXUXUXUXUX/ fX4.1XzXA.1 UXUXUXUXUXUXUXUX X.XUXUXUXUXUXUXUXUX$XC.I.UXUXUXUXUXUXUXR jXe.*Xj.<.@ UXUXUXUXUXUXUXUXUXUXUX",
"UXUXUXUXUXUXUXUXUXUX~ yX:Xa.qXjXd k UXUXUXUXUXUXUXUXXX XUXUXUXUXUXUXUXUXnXC.I.UXUXUXUXUXUXUXUX) 1X:X6X6X6 f UXUXUXUXUXUXUXUXUXUX",
"UXUXUXUXUXUXUXUXUXUX~ uX{.a.lX_.1 UXUXUXUXUXUXUXUXUXoX XUXUXUXUXUXUXUXUXaXE.J.UXUXUXUXUXUXUXUXN ,X,X8X0X! $ UXUXUXUXUXUXUXUXUXUX",
"UXUXUXUXUXUXUXUXUXUX,.yX>.4XzXC t UXUXUXUXUXUXUXUXUXoX XUXUXUXUXUXUXUXUXiXE.F.UXUXUXUXUXUXUXUX~ :.,X,Xj.<.& UXUXUXUXUXUXUXUXUXUX",
"UXUXUXUXUXUXUXUXUXv.`.].1.qXdX, UXUXUXUXUXUXUXUXUXUX@XXXUXUXUXUXUXUXUXUXiXE.U.UXUXUXUXUXUXUXUXUXK 2Xe.t.e.5 y UXUXUXUXUXUXUXUXUX",
"UXUXUXUXUXUXUXUXUX! 2X3.:XwXA.* UXUXUXUXUXUXUXUXUXUX@XXXUXUXUXUXUXUXUXUXiXW.U.UXUXUXUXUXUXUXUXUXK ;Xe.t.>.8 - UXUXUXUXUXUXUXUXUX",
"UXUXUXUXUXUXUXUXUX..:X>.:XrXW - UXUXUXUXUXUXUXUXUXUX#X%XUXUXUXUXUXUXUXUXiX}.Y.UXUXUXUXUXUXUXUXUX( 2.:Xt.>.n @ UXUXUXUXUXUXUXUXUX",
"UXUXUXUXUXUXUXUXUXO.`.8.,XjX7 w UXUXUXUXUXUXUXUXUXUX#XXXUXUXUXUXUXUXUXUXMX|.Y.UXUXUXUXUXUXUXUXUX[.;.:Xt.>.N + UXUXUXUXUXUXUXUXUX",
"UXUXUXUXUXUXUXUX1.y.`.>.1XhX, j UXUXUXUXUXUXUXUXUXUX#XXXUXUXUXUXUXUXUXUXmX|.U.UXUXUXUXUXUXUXUXUXUX] 2Xp.6.( + UXUXUXUXUXUXUXUXUX",
"UXUXUXUXUXUXUXUX;.u.2.6.<XuX@ UXUXUXUXUXUXUXUXUXUXUX#XXXUXUXUXUXUXUXUXUXmX|.U.UXUXUXUXUXUXUXUXUXUX} 3Xp.2./ ; q UXUXUXUXUXUXUXUX",
"UXUXUXUXUXUXUXUX+.9.;.4.<X=X% UXUXUXUXUXUXUXUXUXUXUX#XXXUXUXUXUXUXUXUXUXmX}.U.UXUXUXUXUXUXUXUXUXUX..3X:X1.=.% u UXUXUXUXUXUXUXUX",
"UXUXUXUXUXUXUXUX+.9.X.4.<X_.$ UXUXUXUXUXUXUXUXUXUXUX@XXXUXUXUXUXUXUXUXUXmX}.U.UXUXUXUXUXUXUXUXUXUX..3X2X1.3.: q UXUXUXUXUXUXUXUX",
"UXUXUXUXUXUXUXUXX.#.$.5.<XV.= UXUXUXUXUXUXUXUXUXUXUX#XXXUXUXUXUXUXUXUXUXMX}.Y.UXUXUXUXUXUXUXUXUXUX..dXjX,X`.4 = UXUXUXUXUXUXUXUX",
"UXUXUXUXUXUXUXUX;.#.$.a.5XV.= UXUXUXUXUXUXUXUXUXUXUX#X%XUXUXUXUXUXUXUXUXMX|.~.UXUXUXUXUXUXUXUXUXUX] gXCXtX3Xv = UXUXUXUXUXUXUXUX",
"UXUXUXUXUXUXUXUX..#.&.a.5X` = UXUXUXUXUXUXUXUXUXUXUX&X%XUXUXUXUXUXUXUXUXMX|.~.UXUXUXUXUXUXUXUXUXUX] xXCXkXzXv # UXUXUXUXUXUXUXUX",
"UXUXUXUXUXUXUXUX-.&.%.a.6X_.# UXUXUXUXUXUXUXUXUXUXUX#XXXUXUXUXUXUXUXUXUXMX|.~.UXUXUXUXUXUXUXUXUXUXo.xXZXlXzXn = UXUXUXUXUXUXUXUX",
"UXUXUXUXUXUXUXUX;.9.%.a.6X_.# UXUXUXUXUXUXUXUXUXUXUX#X%XUXUXUXUXUXUXUXUXMXE.~.UXUXUXUXUXUXUXUXUXUXX.xXDXcXkXv r UXUXUXUXUXUXUXUX",
"UXUXUXUXUXUXUXUX`.y.9.a.6X;X, UXUXUXUXUXUXUXUXUXUXUX#XXXUXUXUXUXUXUXUXUXMX|.~.UXUXUXUXUXUXUXUXUXUXX.VXFXcXzXz i UXUXUXUXUXUXUXUX",
"UXUXUXUXUXUXUXUXV.f.9.i.wX3X, UXUXUXUXUXUXUXUXUXUXUX&X%XUXUXUXUXUXUXUXUXMX}.~.UXUXUXUXUXUXUXUXUXUX%.KXFXcXzX5 i UXUXUXUXUXUXUXUX",
"UXUXUXUXUXUXUXUXUXO.u.i.8XjX3 j UXUXUXUXUXUXUXUXUXUX@XXXUXUXUXUXUXUXUXUXMXW.~.UXUXUXUXUXUXUXUXUXUX4.KXGXcXtX3 u UXUXUXUXUXUXUXUX",
"UXUXUXUXUXUXUXUXUXU u.d.0XkX9 w UXUXUXUXUXUXUXUXUXUX#X XUXUXUXUXUXUXUXUXmX}.~.UXUXUXUXUXUXUXUXUX[.:XFXDXcX;X% UXUXUXUXUXUXUXUXUX",
"UXUXUXUXUXUXUXUXUXb u.j.0XlXE w UXUXUXUXUXUXUXUXUXUX@X XUXUXUXUXUXUXUXUXiXE.~.UXUXUXUXUXUXUXUXUX{.gXKXZXcX<.* UXUXUXUXUXUXUXUXUX",
"UXUXUXUXUXUXUXUXUXv X.j.k.zXS.O UXUXUXUXUXUXUXUXUXUX#X XUXUXUXUXUXUXUXUXMX}.~.UXUXUXUXUXUXUXUXUX8.HXGXZXCXQ * UXUXUXUXUXUXUXUXUX",
"UXUXUXUXUXUXUXUXUXV L g.j.zXhX& UXUXUXUXUXUXUXUXUXUX#X XUXUXUXUXUXUXUXUXiXE.~.UXUXUXUXUXUXUXUXUX6.KXFXZXCXl e UXUXUXUXUXUXUXUXUX",
"UXUXUXUXUXUXUXUXUXUXx u.5XwXcXd q UXUXUXUXUXUXUXUXUXOXOXUXUXUXUXUXUXUXUXmXE.Y.UXUXUXUXUXUXUXUX;.gXJXDXZXdX& UXUXUXUXUXUXUXUXUXUX",
"UXUXUXUXUXUXUXUXUXUXl { 5XqXcX'.  UXUXUXUXUXUXUXUXUX#X XUXUXUXUXUXUXUXUXiXE.~.UXUXUXUXUXUXUXUX;.GXKXDXCX_ @ UXUXUXUXUXUXUXUXUXUX",
"UXUXUXUXUXUXUXUXUXUXS L a.7XzXvX, g UXUXUXUXUXUXUXUX#X XUXUXUXUXUXUXUXUXiXE.~.UXUXUXUXUXUXUXUXsXJXFXDXCX6 u UXUXUXUXUXUXUXUXUXUX",
"UXUXUXUXUXUXUXUXUXUXUXc >.5XrXcXS.. UXUXUXUXUXUXUXUXoX XUXUXUXUXUXUXUXUXiXE.~.UXUXUXUXUXUXUX,.LXFXAXDXyX% UXUXUXUXUXUXUXUXUXUXUX",
"UXUXUXUXUXUXUXUXUXUXUXn [ d.rXlXcXC a UXUXUXUXUXUXUX#X XUXUXUXUXUXUXUXUXmXC.U.UXUXUXUXUXUXyXVXLXCXCXcXn - UXUXUXUXUXUXUXUXUXUXUX",
"UXUXUXUXUXUXUXUXUXUXUXUXx y.eXrXkXdX0 D.UXUXUXUXUXUXoX|.UXUXUXUXUXUXUXUXiXC.U.UXUXUXUXUXUXBXLXvXcXcX*X@ UXUXUXUXUXUXUXUXUXUXUXUX",
"UXUXUXUXUXUXUXUXUXUXUXUXV L 0X9XrXkX;X1 UXUXUXUXUXUX@X.XUXUXUXUXUXUXUXUXpXL.^.UXUXUXUXUXbXIXVXeXrXzX6 < UXUXUXUXUXUXUXUXUXUXUXUX",
"UXUXUXUXUXUXUXUXUXUXUXUXUX4 O.9X9X9XrX=X, k UXUXUXUX%X.XUXUXUXUXUXUXUXUXpXE.^.UXUXUXUXvXIXSX8XwX9XR + UXUXUXUXUXUXUXUXUXUXUXUXUX",
"UXUXUXUXUXUXUXUXUXUXUXUXUXUX6 f.k.k.k.9X3X9 1 UXUXUX#XW.UXUXUXUXUXUXUXUXpXC.T.UXUXUXHXIXxX>Xd.5X-.O UXUXUXUXUXUXUXUXUXUXUXUXUXUX",
"UXUXUXUXUXUXUXUXUXUXUXUXUXUXs z s.h.w.g.6XtX^ C c.UX#X!.UXUXUXUXUXUXUXUXnXL.}.UX:XGXLXsXO.6.a.-.* q UXUXUXUXUXUXUXUXUXUXUXUXUXUX",
"UXUXUXUXUXUXUXUXUXUXUXUXUXUXUXs 8 f.w.0.q.u.wX,X) R '.W.UXUXUXUXUXUXUXUX+XR.Z.-XKXBXB.} o.>.I * y UXUXUXUXUXUXUXUXUXUXUXUXUXUXUX",
"UXUXUXUXUXUXUXUXUXUXUXUXUXUXUXUXa 5 ..0.#.&.@.&.7XuX/.Q.W b Z x M ( ! ! @XZ. XBX).P N I } x ; i UXUXUXUXUXUXUXUXUXUXUXUXUXUXUXUX",
"UXUXUXUXUXUXUXUXUXUXUXUXUXUXUXUXUXUX5 c ] @. . .@.4.A.Q.(.:X`.+XyX].2X_.%XP.b.K B b M x 4 % UXUXUXUXUXUXUXUXUXUXUXUXUXUXUXUXUXUX",
"UXUXUXUXUXUXUXUXUXUXUXUXUXUXUXUXUXUXUXt 3 8 m ' { $.'.P.^ U P P M m L I XXL.v.n l 4 : * r UXUXUXUXUXUXUXUXUXUXUXUXUXUXUXUXUXUXUX",
"UXUXUXUXUXUXUXUXUXUXUXUXUXUXUXUXUXUXUXUXUXr , : 4 Z .XP.^ [ L m m m B N OXE.A O @ % r UXUXUXUXUXUXUXUXUXUXUXUXUXUXUXUXUXUXUXUXUX",
"UXUXUXUXUXUXUXUXUXUXUXUXUXUXUXUXUXUXUXUXUXUXUX< ; < .X!.V 5 l 6 4 3 , * |.}.A X i UXUXUXUXUXUXUXUXUXUXUXUXUXUXUXUXUXUXUXUXUXUXUX",
"UXUXUXUXUXUXUXUXUXUXUXUXUXUXUXUXUXUXUXUXUXUXUXUXUXUXOXQ.s # - # =     > XXL.F.UXUXUXUXUXUXUXUXUXUXUXUXUXUXUXUXUXUXUXUXUXUXUXUXUX",
"UXUXUXUXUXUXUXUXUXUXUXUXUXUXUXUXUXUXUXUXUXUXUXUXUXUXOX!.UXUXUXUXUXUXUXUXiXL.I.UXUXUXUXUXUXUXUXUXUXUXUXUXUXUXUXUXUXUXUXUXUXUXUXUX",
"UXUXUXUXUXUXUXUXUXUXUXUXUXUXUXUXUXUXUXUXUXUXUXUXUXUXOXZ.UXUXUXUXUXUXUXUX#XM.K.UXUXUXUXUXUXUXUXUXUXUXUXUXUXUXUXUXUXUXUXUXUXUXUXUX",
"UXUXUXUXUXUXUXUXUXUXUXUXUXUXUXUXUXUXUXUXUXUXUXUXUXUX|.M.UXUXUXUXUXUXUXUX#XN.H.UXUXUXUXUXUXUXUXUXUXUXUXUXUXUXUXUXUXUXUXUXUXUXUXUX",
"UXUXUXUXUXUXUXUXUXUXUXUXUXUXUXUXUXUXUXUXUXUXUXUXUXUX|.M.UXUXUXUXUXUXUXUX@XN.F.UXUXUXUXUXUXUXUXUXUXUXUXUXUXUXUXUXUXUXUXUXUXUXUXUX",
"UXUXUXUXUXUXUXUXUXUXUXUXUXUXUXUXUXUXUXUXUXUXUXUXUXUXE.M.UXUXUXUXUXUXUXUX%XN.D.UXUXUXUXUXUXUXUXUXUXUXUXUXUXUXUXUXUXUXUXUXUXUXUXUX"
};
