<?xml version="1.0" encoding="utf-8"?>
<!-- Generator: Adobe Illustrator 23.1.0, SVG Export Plug-In . SVG Version: 6.00 Build 0)  -->
<svg version="1.1" id="ic_zterra_oro" xmlns="http://www.w3.org/2000/svg" xmlns:xlink="http://www.w3.org/1999/xlink" x="0px"
	 y="0px" viewBox="0 0 24 24" style="enable-background:new 0 0 24 24;" xml:space="preserve">
<style type="text/css">
	.st0{fill:#28B8CE;}
	.st1{fill:none;}
	.st2{fill:#FFFFFF;}
	.st3{font-family:'MyriadPro-Regular';}
	.st4{font-size:12px;}
</style>
<path id="Path_18926" class="st0" d="M12,2C6.5,2,2,6.5,2,12s4.5,10,10,10s10-4.5,10-10S17.5,2,12,2z M12,21.3
	c-5.1,0-9.3-4.1-9.3-9.3S6.9,2.8,12,2.8s9.3,4.1,9.3,9.3S17.1,21.3,12,21.3L12,21.3z"/>
<path id="Path_18927" class="st0" d="M12,3.5c-11-0.2-11,17.2,0,17C23,20.7,23,3.3,12,3.5z"/>
<path id="Rectangle_4542" class="st1" d="M0,0h24v24H0V0z"/>
<g>
	<rect x="7.9" y="7.4" class="st1" width="9.9" height="11.2"/>
	<text transform="matrix(1 0 0 1 7.9343 15.9263)" class="st2 st3 st4">O</text>
</g>
</svg>
